<svg width="1093" height="226" viewBox="0 0 1093 226" fill="none" xmlns="http://www.w3.org/2000/svg">
<path d="M180.445 0H59.8464C26.7709 0 0 26.803 0 59.8462V154.773V183.678V225.968H32.1054L44.9734 183.678L50.9228 164.149C75.98 183.29 104.788 183.678 106.825 183.678H106.953H114.519V154.773V120.404C106.016 120.404 99.097 127.323 99.097 135.826V154.773V167.221C86.2612 166.445 74.137 161.951 63.7584 154.773C43.745 140.967 30.1975 117.268 30.1975 91.1113V60.978H127.032C132.432 60.978 137.669 62.7562 141.969 66.0541L161.239 80.8298C168.19 86.1646 176.726 89.042 185.488 89.042H209.317V116.039C209.317 128.164 199.488 138.025 187.331 138.025H174.819C162.242 138.025 151.216 144.75 145.17 154.805C142.034 160.011 140.223 166.121 140.223 172.62V183.71V226H184.098V183.613C215.46 181.738 240.323 155.711 240.323 123.864V59.8786C240.323 26.803 213.52 0 180.445 0Z" fill="#5E2F76"/>
<path d="M131.106 87.8779C125.965 87.8779 121.794 92.0488 121.794 97.1895C121.794 102.33 125.965 106.501 131.106 106.501C136.247 106.501 140.417 102.33 140.417 97.1895C140.45 92.0488 136.279 87.8779 131.106 87.8779Z" fill="#5E2F76"/>
<path d="M338.935 187.008C336.09 187.008 333.924 186.199 332.437 184.615C330.917 183.031 330.173 180.8 330.173 177.955V98.2244C330.173 95.3146 330.949 93.0835 332.501 91.5639C334.053 90.0443 336.251 89.3008 339.064 89.3008H372.075C382.68 89.3008 390.86 91.9519 396.583 97.2543C402.338 102.557 405.215 109.961 405.215 119.434C405.215 128.94 402.338 136.344 396.583 141.711C390.828 147.045 382.648 149.729 372.075 149.729H347.698V177.955C347.698 180.8 346.953 182.999 345.498 184.615C344.043 186.199 341.845 187.008 338.935 187.008ZM347.698 135.891H369.36C375.567 135.891 380.288 134.501 383.456 131.72C386.657 128.94 388.241 124.833 388.241 119.466C388.241 114.067 386.657 110.026 383.456 107.277C380.255 104.529 375.567 103.171 369.36 103.171H347.698V135.891Z" fill="#5E2F76"/>
<path d="M474.633 119.951C473.113 118.529 471.011 117.817 468.263 117.817C465.514 117.817 463.413 118.529 461.958 119.951C460.503 121.374 459.76 123.54 459.76 126.45V156.583C459.76 161.789 458.304 165.96 455.362 169.128C452.452 172.264 448.702 173.848 444.143 173.848C439.94 173.848 436.869 172.717 434.961 170.421C433.054 168.126 432.083 164.634 432.083 159.881V126.45C432.083 123.54 431.34 121.374 429.82 119.951C428.301 118.529 426.199 117.817 423.451 117.817C420.703 117.817 418.601 118.529 417.146 119.951C415.691 121.374 414.947 123.54 414.947 126.45V159.59C414.947 165.701 415.853 170.809 417.631 174.948C419.409 179.054 422.125 182.125 425.779 184.195C429.432 186.264 434.056 187.266 439.617 187.266C444.919 187.266 449.511 185.941 453.39 183.29C456.139 181.414 458.401 178.925 460.18 175.885V178.213C460.18 181.059 460.924 183.225 462.379 184.712C463.834 186.232 465.903 186.975 468.554 186.975C474.115 186.975 476.896 184.065 476.896 178.213V126.418C476.896 123.54 476.12 121.341 474.633 119.951Z" fill="#5E2F76"/>
<path d="M557.726 133.79C555.268 128.616 551.809 124.64 547.38 121.794C542.95 118.949 537.809 117.559 531.957 117.559C526.299 117.559 521.352 118.981 517.084 121.794C514.045 123.831 511.717 126.353 510.165 129.328V126.45C510.165 123.605 509.421 121.471 507.966 120.016C506.511 118.561 504.41 117.818 501.662 117.818C499.011 117.818 496.942 118.561 495.487 120.016C494.032 121.471 493.288 123.637 493.288 126.45V203.044C493.288 205.89 494.032 208.024 495.487 209.478C496.942 210.933 499.043 211.677 501.791 211.677C504.539 211.677 506.641 210.933 508.161 209.478C509.68 208.024 510.424 205.857 510.424 203.044V175.918C512.04 178.731 514.304 181.156 517.278 183.128C521.482 185.908 526.364 187.299 531.925 187.299C537.874 187.299 543.015 185.876 547.412 183.063C551.809 180.218 555.236 176.177 557.693 170.939C560.15 165.701 561.379 159.493 561.379 152.38C561.411 145.138 560.183 138.93 557.726 133.79ZM542.044 164.472C540.622 167.706 538.65 170.163 536.096 171.812C533.542 173.461 530.567 174.269 527.204 174.269C522.096 174.269 517.99 172.426 514.886 168.708C511.782 165.022 510.23 159.558 510.23 152.348C510.23 147.498 510.941 143.457 512.364 140.224C513.786 136.99 515.759 134.565 518.313 132.949C520.867 131.365 523.842 130.556 527.204 130.556C532.313 130.556 536.418 132.367 539.522 135.956C542.626 139.577 544.179 145.009 544.179 152.316C544.146 157.198 543.435 161.239 542.044 164.472Z" fill="#5E2F76"/>
<path d="M638.555 133.79C636.098 128.616 632.639 124.64 628.209 121.794C623.78 118.949 618.639 117.559 612.787 117.559C607.129 117.559 602.182 118.981 597.914 121.794C594.875 123.831 592.547 126.353 590.995 129.328V126.45C590.995 123.605 590.251 121.471 588.796 120.016C587.341 118.561 585.24 117.818 582.492 117.818C579.84 117.818 577.771 118.561 576.316 120.016C574.861 121.471 574.118 123.637 574.118 126.45V203.044C574.118 205.89 574.861 208.024 576.316 209.478C577.771 210.933 579.873 211.677 582.621 211.677C585.369 211.677 587.471 210.933 588.99 209.478C590.51 208.024 591.253 205.857 591.253 203.044V175.918C592.87 178.731 595.134 181.156 598.108 183.128C602.311 185.908 607.193 187.299 612.755 187.299C618.704 187.299 623.845 185.876 628.242 183.063C632.639 180.218 636.066 176.177 638.523 170.939C640.98 165.701 642.208 159.493 642.208 152.38C642.241 145.138 641.013 138.93 638.555 133.79ZM622.874 164.472C621.451 167.706 619.48 170.163 616.925 171.812C614.371 173.461 611.397 174.269 608.034 174.269C602.926 174.269 598.819 172.426 595.716 168.708C592.612 165.022 591.06 159.558 591.06 152.348C591.06 147.498 591.771 143.457 593.194 140.224C594.616 136.99 596.589 134.565 599.143 132.949C601.697 131.365 604.672 130.556 608.034 130.556C613.143 130.556 617.248 132.367 620.352 135.956C623.456 139.577 625.008 145.009 625.008 152.316C624.976 157.198 624.264 161.239 622.874 164.472Z" fill="#5E2F76"/>
<path d="M714.05 123.508C713.791 121.826 713.048 120.436 711.852 119.402C710.655 118.367 709.071 117.817 707.067 117.817C704.771 117.817 702.961 118.302 701.57 119.24C700.18 120.178 699.016 121.956 698.014 124.51L681.169 165.733L664.712 124.639C663.709 121.988 662.578 120.178 661.285 119.24C659.992 118.27 658.31 117.817 656.209 117.817C653.751 117.817 651.811 118.335 650.389 119.402C648.966 120.469 648.125 121.859 647.867 123.572C647.608 125.318 647.867 127.194 648.675 129.198L672.051 183.257L664.292 200.458C663.483 202.365 663.16 204.208 663.386 205.922C663.613 207.668 664.356 209.058 665.649 210.093C666.943 211.127 668.559 211.677 670.596 211.677C672.795 211.677 674.573 211.224 675.931 210.319C677.289 209.414 678.582 207.668 679.779 205.114L713.081 129.069C713.986 127.032 714.309 125.189 714.05 123.508Z" fill="#5E2F76"/>
<path d="M804.676 135.568C803.448 134.339 801.67 133.725 799.407 133.725H776.807C774.511 133.725 772.765 134.274 771.536 135.374C770.308 136.473 769.694 138.057 769.694 140.159C769.694 142.163 770.308 143.78 771.536 144.944C772.765 146.14 774.543 146.722 776.807 146.722H791.873V169.225C789.416 169.969 786.894 170.615 784.339 171.1C780.589 171.844 776.903 172.2 773.25 172.2C762.645 172.2 754.659 169.29 749.26 163.438C743.86 157.586 741.177 149.05 741.177 137.831C741.177 130.427 742.341 124.187 744.669 119.046C746.997 113.937 750.489 110.025 755.144 107.342C759.8 104.658 765.522 103.3 772.28 103.3C776.677 103.3 780.654 103.753 784.211 104.658C787.767 105.564 791.292 107.019 794.751 109.055C796.562 110.058 798.242 110.413 799.762 110.155C801.281 109.896 802.511 109.185 803.545 108.086C804.548 106.986 805.226 105.693 805.614 104.173C805.97 102.654 805.905 101.199 805.42 99.7115C804.903 98.2566 803.901 97.0279 802.349 96.0256C797.79 93.1157 792.908 91.0142 787.767 89.7856C782.594 88.557 777.453 87.9426 772.344 87.9426C764.585 87.9426 757.634 89.1066 751.523 91.4345C745.412 93.7624 740.207 97.0927 735.971 101.425C731.736 105.758 728.47 110.995 726.239 117.106C724.008 123.217 722.876 130.136 722.876 137.799C722.876 147.951 724.784 156.713 728.632 164.117C732.479 171.521 738.073 177.211 745.413 181.253C752.752 185.262 761.772 187.266 772.474 187.266C777.485 187.266 782.626 186.781 787.832 185.844C793.037 184.906 797.661 183.678 801.67 182.223C803.416 181.576 804.676 180.574 805.452 179.216C806.228 177.858 806.617 176.144 806.617 174.14V140.838C806.52 138.542 805.905 136.796 804.676 135.568Z" fill="#5E2F76"/>
<path d="M868.177 124.252C867.983 121.891 867.336 120.113 866.204 118.982C865.072 117.85 863.521 117.365 861.613 117.559C855.406 118.109 850.426 119.79 846.676 122.635C843.96 124.672 841.923 127.42 840.5 130.847V126.483C840.5 123.637 839.757 121.504 838.302 120.049C836.847 118.594 834.777 117.85 832.126 117.85C829.475 117.85 827.406 118.594 825.951 120.049C824.496 121.504 823.753 123.67 823.753 126.483V178.278C823.753 181.123 824.496 183.29 826.016 184.777C827.535 186.297 829.702 187.04 832.515 187.04C835.36 187.04 837.494 186.297 838.949 184.777C840.403 183.257 841.147 181.091 841.147 178.278V149.923C841.147 144.718 842.57 140.676 845.383 137.799C848.228 134.921 852.398 133.208 857.992 132.658L860.999 132.399C863.456 132.141 865.299 131.268 866.56 129.877C867.821 128.39 868.338 126.547 868.177 124.252Z" fill="#5E2F76"/>
<path d="M929.833 129.651C927.732 125.577 924.563 122.538 920.295 120.533C916.06 118.529 910.628 117.526 904.065 117.526C900.864 117.526 897.34 117.882 893.46 118.626C889.58 119.369 885.538 120.598 881.335 122.312C879.589 122.958 878.361 123.928 877.65 125.254C876.906 126.579 876.55 127.937 876.55 129.295C876.55 130.653 876.906 131.914 877.65 133.078C878.393 134.21 879.396 134.986 880.721 135.341C882.047 135.697 883.567 135.471 885.313 134.662C888.708 133.11 891.908 132.011 894.98 131.365C898.052 130.718 900.896 130.395 903.548 130.395C908.3 130.395 911.663 131.397 913.7 133.401C915.704 135.406 916.707 138.704 916.707 143.263V146.14H911.922C902.255 146.14 894.527 146.787 888.772 148.048C883.017 149.341 878.846 151.41 876.292 154.288C873.738 157.165 872.444 161.078 872.444 165.992C872.444 170.001 873.511 173.622 875.677 176.823C877.811 180.024 880.786 182.546 884.568 184.421C888.351 186.296 892.684 187.234 897.501 187.234C901.155 187.234 904.388 186.587 907.233 185.326C910.078 184.033 912.407 182.255 914.282 179.927C915.414 178.537 916.286 176.953 916.965 175.271V178.214C916.965 181.059 917.677 183.225 919.099 184.712C920.522 186.232 922.494 186.975 925.048 186.975C927.602 186.975 929.575 186.232 930.933 184.712C932.291 183.193 933.002 181.026 933.002 178.214V145.332C932.97 138.962 931.935 133.725 929.833 129.651ZM914.605 167.544C913.247 170.001 911.372 171.941 909.044 173.364C906.716 174.786 904.033 175.498 901.026 175.498C897.275 175.498 894.365 174.528 892.264 172.62C890.162 170.712 889.128 168.223 889.128 165.216C889.128 162.856 889.839 160.981 891.261 159.655C892.684 158.329 895.076 157.392 898.439 156.842C901.801 156.292 906.328 156.034 912.018 156.034H916.675V159.041C916.675 162.242 915.995 165.087 914.605 167.544Z" fill="#5E2F76"/>
<path d="M1013.41 133.79C1010.95 128.616 1007.49 124.64 1003.07 121.794C998.636 118.949 993.495 117.559 987.643 117.559C981.985 117.559 977.038 118.981 972.77 121.794C969.731 123.831 967.403 126.353 965.851 129.328V126.45C965.851 123.605 965.108 121.471 963.653 120.016C962.198 118.561 960.096 117.818 957.348 117.818C954.696 117.818 952.627 118.561 951.172 120.016C949.718 121.471 948.974 123.637 948.974 126.45V203.044C948.974 205.89 949.718 208.024 951.172 209.478C952.627 210.933 954.729 211.677 957.477 211.677C960.225 211.677 962.327 210.933 963.846 209.478C965.366 208.024 966.11 205.857 966.11 203.044V175.918C967.727 178.731 969.99 181.156 972.964 183.128C977.167 185.908 982.05 187.299 987.611 187.299C993.56 187.299 998.701 185.876 1003.1 183.063C1007.49 180.218 1010.92 176.177 1013.38 170.939C1015.84 165.701 1017.07 159.493 1017.07 152.38C1017.1 145.138 1015.87 138.93 1013.41 133.79ZM997.698 164.472C996.275 167.706 994.303 170.163 991.749 171.812C989.195 173.461 986.22 174.269 982.858 174.269C977.749 174.269 973.643 172.426 970.539 168.708C967.435 165.022 965.884 159.558 965.884 152.348C965.884 147.498 966.595 143.457 968.017 140.224C969.44 136.99 971.412 134.565 973.967 132.949C976.521 131.365 979.495 130.556 982.858 130.556C987.966 130.556 992.073 132.367 995.177 135.956C998.28 139.577 999.832 145.009 999.832 152.316C999.832 157.198 999.12 161.239 997.698 164.472Z" fill="#5E2F76"/>
<path d="M1089.97 129.651C1088.23 125.577 1085.64 122.538 1082.15 120.533C1078.69 118.529 1074.26 117.527 1068.86 117.527C1063.46 117.527 1058.64 118.788 1054.41 121.309C1051.34 123.12 1048.85 125.577 1046.94 128.616V96.8341C1046.94 93.9889 1046.2 91.855 1044.68 90.4001C1043.16 88.9451 1041.06 88.2015 1038.31 88.2015C1035.56 88.2015 1033.46 88.9451 1032 90.4001C1030.55 91.855 1029.8 94.0212 1029.8 96.8341V178.214C1029.8 181.059 1030.55 183.225 1032 184.712C1033.46 186.232 1035.56 186.976 1038.31 186.976C1044.06 186.976 1046.94 184.066 1046.94 178.214V148.21C1046.94 143.004 1048.43 138.833 1051.4 135.665C1054.38 132.529 1058.35 130.944 1063.4 130.944C1067.5 130.944 1070.54 132.141 1072.51 134.501C1074.49 136.861 1075.46 140.676 1075.46 145.882V178.214C1075.46 181.059 1076.2 183.225 1077.72 184.712C1079.24 186.2 1081.34 186.976 1084.09 186.976C1086.84 186.976 1088.94 186.232 1090.39 184.712C1091.85 183.193 1092.59 181.027 1092.59 178.214V145.073C1092.59 138.866 1091.72 133.725 1089.97 129.651Z" fill="#5E2F76"/>
</svg>
